<?xml version="1.0" encoding="utf-8"?>
<!-- Generator: Adobe Illustrator 27.9.0, SVG Export Plug-In . SVG Version: 6.00 Build 0)  -->
<svg version="1.1" id="katman_1" xmlns="http://www.w3.org/2000/svg" xmlns:xlink="http://www.w3.org/1999/xlink" x="0px" y="0px"
	 viewBox="0 0 192 320" style="enable-background:new 0 0 192 320;" xml:space="preserve">
<style type="text/css">
	.st0{fill:#FFCC00;}
</style>
<g>
	<path class="st0" d="M60.6,224.6V94.2L19.4,109c-1.8,0.7-3.2,1.1-4.2,1.1c-2.5,0-3.5-1.4-3.5-4.2v-50c0-3.2,1.1-4.6,4.2-6
		l60.6-25.4c2.5-1.1,4.9-1.4,8.1-1.4h40.5c3.9,0,6.7,2.8,6.7,6.7v194.9h41.9c3.9,0,7,3.2,7,7v46.2c0,3.9-3.2,7-7,7H18.3
		c-3.9,0-7-3.2-7-7v-46.2c0-3.9,3.2-7,7-7H60.6z"/>
</g>
</svg>
