<?xml version="1.0" encoding="utf-8"?>
<!-- Generator: Adobe Illustrator 27.9.0, SVG Export Plug-In . SVG Version: 6.00 Build 0)  -->
<svg version="1.1" id="katman_1" xmlns="http://www.w3.org/2000/svg" xmlns:xlink="http://www.w3.org/1999/xlink" x="0px" y="0px"
	 viewBox="0 0 192 320" style="enable-background:new 0 0 192 320;" xml:space="preserve">
<style type="text/css">
	.st0{fill:#FFCC00;}
</style>
<g>
	<path class="st0" d="M149.4,155.5l-28.2,18.8c-26.8,17.7-51.1,30.2-51.1,50.1v1h105c3.8,0,7,3.1,7,7v45.5c0,3.8-3.1,7-7,7h-162
		c-3.8,0-7-3.1-7-7v-36.9c0-38.2,17-67.5,41.4-85.5l29.9-22.3c36.9-27.5,38.9-28.9,38.9-38.6c0-11.1-5.2-15.6-32.7-15.6
		c-21.9,0-46.2,2.4-67.8,4.2c-0.3,0-0.3,0-0.7,0c-3.5,0-6.3-3.1-6.3-7V42.5c0-3.8,3.1-5.2,6.6-6.6c20.9-7.3,49.4-12.9,78.2-12.9
		c67.1,0,92.1,22.9,92.1,68.8C185.9,119,172.7,140.2,149.4,155.5z"/>
</g>
</svg>
