<?xml version="1.0" encoding="utf-8"?>
<!-- Generator: Adobe Illustrator 27.9.0, SVG Export Plug-In . SVG Version: 6.00 Build 0)  -->
<svg version="1.1" id="katman_1" xmlns="http://www.w3.org/2000/svg" xmlns:xlink="http://www.w3.org/1999/xlink" x="0px" y="0px"
	 viewBox="0 0 192 320" style="enable-background:new 0 0 192 320;" xml:space="preserve">
<style type="text/css">
	.st0{fill:#FFCC00;}
</style>
<g>
	<path class="st0" d="M90.4,289c-28.6,0-60.7-5.6-77.1-11.9c-3.5-1.4-7-3.1-7-7V236c0-3.8,2.8-6.6,6.3-6.6c0.3,0,0.3,0,0.7,0
		c21.6,1.7,51.3,3.5,72.6,3.5s29.7-8.4,29.7-22.3v-5.6c0-12.9-3.8-24.8-27.2-24.8H30.4c-3.8,0-7-3.1-7-7v-37.3c0-3.8,3.1-6.6,7-6.6
		h57.9c22,0,27.2-13.6,27.2-25.8v-5.6c0-14-9.1-18.1-26.9-18.1c-24.1,0-51,2.1-73.6,3.8c-0.3,0-0.3,0-0.7,0c-3.5,0-6.6-2.8-6.6-6.6
		V42.6c0-3.8,3.8-5.6,7.3-7c16.4-6.3,45-12.6,73.6-12.6c59,0,96.3,17.8,96.3,70.1v4.9c0,19.2-10.1,42.2-31.8,55.5
		c19.5,10.1,32.5,27.9,32.5,51.3v5.6C185.7,264.9,149,289,90.4,289z"/>
</g>
</svg>
