<?xml version="1.0" encoding="utf-8"?>
<!-- Generator: Adobe Illustrator 27.9.0, SVG Export Plug-In . SVG Version: 6.00 Build 0)  -->
<svg version="1.1" id="katman_1" xmlns="http://www.w3.org/2000/svg" xmlns:xlink="http://www.w3.org/1999/xlink" x="0px" y="0px"
	 viewBox="0 0 192 320" style="enable-background:new 0 0 192 320;" xml:space="preserve">
<style type="text/css">
	.st0{fill:#FFCC00;}
</style>
<g>
	<path class="st0" d="M181.7,228.4h-18.3v42.7c0,3.5-2.8,6.3-6.3,6.3h-51.8c-3.5,0-6-2.8-6-6.3v-42.7H11.1c-3.5,0-6.3-2.8-6.3-6.3
		v-35.7c0-3.5,1.3-6.6,3.5-9.5L110.6,45.5c1.9-2.5,4.4-2.8,7.6-2.8H157c3.5,0,6.3,2.8,6.3,6.3v130.8h18.3c3.5,0,6.3,2.8,6.3,6.3v36
		C188,225.6,185.2,228.4,181.7,228.4z M101.7,119.7c0-0.6-0.3-1.3-0.6-1.3s-0.6,0.3-0.9,0.6l-43.6,57.8c-0.6,0.9-0.9,1.6-0.9,1.9
		c0,0.6,0.6,0.9,1.6,0.9h44.5V119.7z"/>
</g>
</svg>
