<?xml version="1.0" encoding="utf-8"?>
<!-- Generator: Adobe Illustrator 27.9.0, SVG Export Plug-In . SVG Version: 6.00 Build 0)  -->
<svg version="1.1" id="katman_1" xmlns="http://www.w3.org/2000/svg" xmlns:xlink="http://www.w3.org/1999/xlink" x="0px" y="0px"
	 viewBox="0 0 192 320" style="enable-background:new 0 0 192 320;" xml:space="preserve">
<style type="text/css">
	.st0{fill:#FFCC00;}
</style>
<g>
	<path class="st0" d="M91.7,283.7c-22.7,0-47-3.9-66.4-10.9c-3.3-1.3-6.9-2.6-6.9-6.9v-32.6c0-3.6,3-6.2,6.2-6.2c0.3,0,0.3,0,0.7,0
		c15.5,1.6,46.4,3.6,54.9,3.6c31.6,0,36.8-8.2,36.8-28.3v-3.3c0-16.1-7.6-22.7-34.9-22.7H24.6c-3.3,0-5.6-2-5.6-5.3
		c0-0.3,0-0.3,0-0.7L29.2,42.6c0.3-3.3,3-6.2,6.6-6.2H172c3.6,0,6.6,2.6,6.6,6.2v40.8c0,3.6-3,6.2-6.6,6.2H82.5l-3.3,36.2h13.5
		c63.8,0,92.4,24.3,92.4,73.3v3.3C185.1,257,149.3,283.7,91.7,283.7z"/>
</g>
</svg>
