<?xml version="1.0" encoding="utf-8"?>
<!-- Generator: Adobe Illustrator 27.9.0, SVG Export Plug-In . SVG Version: 6.00 Build 0)  -->
<svg version="1.1" id="katman_1" xmlns="http://www.w3.org/2000/svg" xmlns:xlink="http://www.w3.org/1999/xlink" x="0px" y="0px"
	 viewBox="0 0 192 320" style="enable-background:new 0 0 192 320;" xml:space="preserve">
<style type="text/css">
	.st0{fill:#FFCC00;}
</style>
<g>
	<path class="st0" d="M96.5,286.8c-54.6,0-86.5-31-86.5-88.1v-65.1c0-63.2,38.8-87.5,88.1-87.5c29.4,0,50.9,4.1,66,8.2
		c5.7,1.6,6.9,3.8,6.9,7.6v33.2c0,4.4-2.2,6.6-5.7,6.6c-0.6,0-0.9,0-1.6,0c-14.8-2.2-37.9-4.4-56.5-4.4c-28.1,0-34.4,7.3-34.4,36.3
		v1.9c6-1.3,23.1-3.2,32.2-3.2c51.8,0,77.1,16.7,77.1,69.8v3.5C182.1,254.9,153,286.8,96.5,286.8z M119.2,202.1
		c0-21.8-8.2-25.9-24.3-25.9c-7.6,0-16.7,0.9-22.1,1.9v20.5c0,32.8,6.3,39.5,23.7,39.5c13.3,0,22.7-5.7,22.7-32.5V202.1z"/>
</g>
</svg>
