<?xml version="1.0" encoding="utf-8"?>
<!-- Generator: Adobe Illustrator 27.9.0, SVG Export Plug-In . SVG Version: 6.00 Build 0)  -->
<svg version="1.1" id="katman_1" xmlns="http://www.w3.org/2000/svg" xmlns:xlink="http://www.w3.org/1999/xlink" x="0px" y="0px"
	 viewBox="0 0 192 320" style="enable-background:new 0 0 192 320;" xml:space="preserve">
<style type="text/css">
	.st0{fill:#FFCC00;}
</style>
<g>
	<path class="st0" d="M98.9,290h-3.8c-57,0-87.2-28.3-87.2-70.3v-5.1c0-20.7,9.9-38.2,25.5-50c-15-10.5-24.2-24.8-24.2-45.8v-5.7
		c0-41.7,28.6-65.6,85.9-65.6h3.8c57,0,85.9,23.9,85.9,65.6v5.7c0,21-9.2,35.3-24.2,45.8c15.6,11.8,25.5,29.3,25.5,50v5.1
		C186.1,261.7,155.9,290,98.9,290z M123.7,118.8c0-12.4-6.4-24.2-24.8-24.2h-3.8c-18.5,0-24.8,11.5-24.8,24.2v1.9
		c0,14,8.6,22.6,23.2,22.6h7c14.6,0,23.2-8.6,23.2-22.6V118.8z M123.7,213.3c0-14-6.7-26.1-23.2-26.1h-7
		c-16.5,0-23.2,11.8-23.2,26.1v3.5c0,15.3,8.9,26.1,24.8,26.1h3.8c15.9,0,24.8-10.8,24.8-26.1V213.3z"/>
</g>
</svg>
