<?xml version="1.0" encoding="utf-8"?>
<!-- Generator: Adobe Illustrator 27.9.0, SVG Export Plug-In . SVG Version: 6.00 Build 0)  -->
<svg version="1.1" id="katman_1" xmlns="http://www.w3.org/2000/svg" xmlns:xlink="http://www.w3.org/1999/xlink" x="0px" y="0px"
	 viewBox="0 0 192 320" style="enable-background:new 0 0 192 320;" xml:space="preserve">
<style type="text/css">
	.st0{fill:#FFCC00;}
</style>
<g>
	<path class="st0" d="M93.9,290c-29.6,0-51.2-4.1-66.5-8.3c-5.7-1.6-7-3.8-7-7.6v-33.4c0-5.7,1.9-7.3,7.3-6.7
		c15.6,1.9,38.2,4.5,57,4.5c28.3,0,34.7-7.3,34.7-36.6v-1.9c-6,1.3-23.2,3.2-32.5,3.2c-52.2,0-77.7-16.9-77.7-70.3v-3.5
		c0-49.6,29.3-81.8,86.2-81.8c55.1,0,87.2,31.2,87.2,88.8v65.6C182.7,265.5,143.6,290,93.9,290z M119.4,136.3
		c0-33.1-6.4-39.8-23.9-39.8c-13.4,0-22.9,5.7-22.9,32.8v3.5c0,22.3,8.3,26.1,24.5,26.1c7.6,0,16.9-1,22.3-1.9V136.3z"/>
</g>
</svg>
